<?xml version="1.0" encoding="UTF-8" standalone="no"?>
<!DOCTYPE svg PUBLIC "-//W3C//DTD SVG 1.1//EN"
 "http://www.w3.org/Graphics/SVG/1.1/DTD/svg11.dtd">
<!-- Generated by graphviz version 2.46.1 (20210213.1702)
 -->
<!-- Title: Tree Pages: 1 -->
<svg width="967pt" height="433pt"
 viewBox="0.00 0.00 967.00 433.00" xmlns="http://www.w3.org/2000/svg" xmlns:xlink="http://www.w3.org/1999/xlink">
<g id="graph0" class="graph" transform="scale(1 1) rotate(0) translate(4 429)">
<title>Tree</title>
<polygon fill="white" stroke="transparent" points="-4,4 -4,-429 963,-429 963,4 -4,4"/>
<!-- 0 -->
<g id="node1" class="node">
<title>0</title>
<path fill="#fffdfc" stroke="black" d="M524.5,-425C524.5,-425 418.5,-425 418.5,-425 412.5,-425 406.5,-419 406.5,-413 406.5,-413 406.5,-354 406.5,-354 406.5,-348 412.5,-342 418.5,-342 418.5,-342 524.5,-342 524.5,-342 530.5,-342 536.5,-348 536.5,-354 536.5,-354 536.5,-413 536.5,-413 536.5,-419 530.5,-425 524.5,-425"/>
<text text-anchor="middle" x="471.5" y="-409.8" font-family="Helvetica,sans-Serif" font-size="14.00">n&#45;1 &lt;= 38.625</text>
<text text-anchor="middle" x="471.5" y="-394.8" font-family="Helvetica,sans-Serif" font-size="14.00">gini = 0.5</text>
<text text-anchor="middle" x="471.5" y="-379.8" font-family="Helvetica,sans-Serif" font-size="14.00">samples = 600</text>
<text text-anchor="middle" x="471.5" y="-364.8" font-family="Helvetica,sans-Serif" font-size="14.00">value = [302, 298]</text>
<text text-anchor="middle" x="471.5" y="-349.8" font-family="Helvetica,sans-Serif" font-size="14.00">class = 正常</text>
</g>
<!-- 1 -->
<g id="node2" class="node">
<title>1</title>
<path fill="#41a1e6" stroke="black" d="M404.5,-306C404.5,-306 306.5,-306 306.5,-306 300.5,-306 294.5,-300 294.5,-294 294.5,-294 294.5,-235 294.5,-235 294.5,-229 300.5,-223 306.5,-223 306.5,-223 404.5,-223 404.5,-223 410.5,-223 416.5,-229 416.5,-235 416.5,-235 416.5,-294 416.5,-294 416.5,-300 410.5,-306 404.5,-306"/>
<text text-anchor="middle" x="355.5" y="-290.8" font-family="Helvetica,sans-Serif" font-size="14.00">n&#45;3 &lt;= 39.356</text>
<text text-anchor="middle" x="355.5" y="-275.8" font-family="Helvetica,sans-Serif" font-size="14.00">gini = 0.073</text>
<text text-anchor="middle" x="355.5" y="-260.8" font-family="Helvetica,sans-Serif" font-size="14.00">samples = 290</text>
<text text-anchor="middle" x="355.5" y="-245.8" font-family="Helvetica,sans-Serif" font-size="14.00">value = [11, 279]</text>
<text text-anchor="middle" x="355.5" y="-230.8" font-family="Helvetica,sans-Serif" font-size="14.00">class = 异常</text>
</g>
<!-- 0&#45;&gt;1 -->
<g id="edge1" class="edge">
<title>0&#45;&gt;1</title>
<path fill="none" stroke="black" d="M431.25,-341.91C422.08,-332.65 412.24,-322.73 402.8,-313.21"/>
<polygon fill="black" stroke="black" points="405.2,-310.66 395.67,-306.02 400.23,-315.59 405.2,-310.66"/>
<text text-anchor="middle" x="395.57" y="-327.32" font-family="Helvetica,sans-Serif" font-size="14.00">True</text>
</g>
<!-- 8 -->
<g id="node9" class="node">
<title>8</title>
<path fill="#e78946" stroke="black" d="M640.5,-306C640.5,-306 542.5,-306 542.5,-306 536.5,-306 530.5,-300 530.5,-294 530.5,-294 530.5,-235 530.5,-235 530.5,-229 536.5,-223 542.5,-223 542.5,-223 640.5,-223 640.5,-223 646.5,-223 652.5,-229 652.5,-235 652.5,-235 652.5,-294 652.5,-294 652.5,-300 646.5,-306 640.5,-306"/>
<text text-anchor="middle" x="591.5" y="-290.8" font-family="Helvetica,sans-Serif" font-size="14.00">n&#45;0 &lt;= 37.64</text>
<text text-anchor="middle" x="591.5" y="-275.8" font-family="Helvetica,sans-Serif" font-size="14.00">gini = 0.115</text>
<text text-anchor="middle" x="591.5" y="-260.8" font-family="Helvetica,sans-Serif" font-size="14.00">samples = 310</text>
<text text-anchor="middle" x="591.5" y="-245.8" font-family="Helvetica,sans-Serif" font-size="14.00">value = [291, 19]</text>
<text text-anchor="middle" x="591.5" y="-230.8" font-family="Helvetica,sans-Serif" font-size="14.00">class = 正常</text>
</g>
<!-- 0&#45;&gt;8 -->
<g id="edge8" class="edge">
<title>0&#45;&gt;8</title>
<path fill="none" stroke="black" d="M513.13,-341.91C522.63,-332.65 532.8,-322.73 542.57,-313.21"/>
<polygon fill="black" stroke="black" points="545.22,-315.51 549.94,-306.02 540.34,-310.5 545.22,-315.51"/>
<text text-anchor="middle" x="549.62" y="-327.32" font-family="Helvetica,sans-Serif" font-size="14.00">False</text>
</g>
<!-- 2 -->
<g id="node3" class="node">
<title>2</title>
<path fill="#3a9de5" stroke="black" d="M226,-187C226,-187 137,-187 137,-187 131,-187 125,-181 125,-175 125,-175 125,-116 125,-116 125,-110 131,-104 137,-104 137,-104 226,-104 226,-104 232,-104 238,-110 238,-116 238,-116 238,-175 238,-175 238,-181 232,-187 226,-187"/>
<text text-anchor="middle" x="181.5" y="-171.8" font-family="Helvetica,sans-Serif" font-size="14.00">n&#45;0 &lt;= 40.593</text>
<text text-anchor="middle" x="181.5" y="-156.8" font-family="Helvetica,sans-Serif" font-size="14.00">gini = 0.007</text>
<text text-anchor="middle" x="181.5" y="-141.8" font-family="Helvetica,sans-Serif" font-size="14.00">samples = 271</text>
<text text-anchor="middle" x="181.5" y="-126.8" font-family="Helvetica,sans-Serif" font-size="14.00">value = [1, 270]</text>
<text text-anchor="middle" x="181.5" y="-111.8" font-family="Helvetica,sans-Serif" font-size="14.00">class = 异常</text>
</g>
<!-- 1&#45;&gt;2 -->
<g id="edge2" class="edge">
<title>1&#45;&gt;2</title>
<path fill="none" stroke="black" d="M295.13,-222.91C279.56,-212.44 262.73,-201.12 246.92,-190.49"/>
<polygon fill="black" stroke="black" points="248.5,-187.34 238.25,-184.66 244.6,-193.15 248.5,-187.34"/>
</g>
<!-- 5 -->
<g id="node6" class="node">
<title>5</title>
<path fill="#fcf2eb" stroke="black" d="M396.5,-187C396.5,-187 314.5,-187 314.5,-187 308.5,-187 302.5,-181 302.5,-175 302.5,-175 302.5,-116 302.5,-116 302.5,-110 308.5,-104 314.5,-104 314.5,-104 396.5,-104 396.5,-104 402.5,-104 408.5,-110 408.5,-116 408.5,-116 408.5,-175 408.5,-175 408.5,-181 402.5,-187 396.5,-187"/>
<text text-anchor="middle" x="355.5" y="-171.8" font-family="Helvetica,sans-Serif" font-size="14.00">n&#45;0 &lt;= 37.791</text>
<text text-anchor="middle" x="355.5" y="-156.8" font-family="Helvetica,sans-Serif" font-size="14.00">gini = 0.499</text>
<text text-anchor="middle" x="355.5" y="-141.8" font-family="Helvetica,sans-Serif" font-size="14.00">samples = 19</text>
<text text-anchor="middle" x="355.5" y="-126.8" font-family="Helvetica,sans-Serif" font-size="14.00">value = [10, 9]</text>
<text text-anchor="middle" x="355.5" y="-111.8" font-family="Helvetica,sans-Serif" font-size="14.00">class = 正常</text>
</g>
<!-- 1&#45;&gt;5 -->
<g id="edge5" class="edge">
<title>1&#45;&gt;5</title>
<path fill="none" stroke="black" d="M355.5,-222.91C355.5,-214.65 355.5,-205.86 355.5,-197.3"/>
<polygon fill="black" stroke="black" points="359,-197.02 355.5,-187.02 352,-197.02 359,-197.02"/>
</g>
<!-- 3 -->
<g id="node4" class="node">
<title>3</title>
<path fill="#399de5" stroke="black" d="M101,-68C101,-68 12,-68 12,-68 6,-68 0,-62 0,-56 0,-56 0,-12 0,-12 0,-6 6,0 12,0 12,0 101,0 101,0 107,0 113,-6 113,-12 113,-12 113,-56 113,-56 113,-62 107,-68 101,-68"/>
<text text-anchor="middle" x="56.5" y="-52.8" font-family="Helvetica,sans-Serif" font-size="14.00">gini = 0.0</text>
<text text-anchor="middle" x="56.5" y="-37.8" font-family="Helvetica,sans-Serif" font-size="14.00">samples = 270</text>
<text text-anchor="middle" x="56.5" y="-22.8" font-family="Helvetica,sans-Serif" font-size="14.00">value = [0, 270]</text>
<text text-anchor="middle" x="56.5" y="-7.8" font-family="Helvetica,sans-Serif" font-size="14.00">class = 异常</text>
</g>
<!-- 2&#45;&gt;3 -->
<g id="edge3" class="edge">
<title>2&#45;&gt;3</title>
<path fill="none" stroke="black" d="M134.95,-103.73C124.23,-94.33 112.83,-84.35 102.15,-74.99"/>
<polygon fill="black" stroke="black" points="104.34,-72.26 94.51,-68.3 99.73,-77.52 104.34,-72.26"/>
</g>
<!-- 4 -->
<g id="node5" class="node">
<title>4</title>
<path fill="#e58139" stroke="black" d="M219.5,-68C219.5,-68 143.5,-68 143.5,-68 137.5,-68 131.5,-62 131.5,-56 131.5,-56 131.5,-12 131.5,-12 131.5,-6 137.5,0 143.5,0 143.5,0 219.5,0 219.5,0 225.5,0 231.5,-6 231.5,-12 231.5,-12 231.5,-56 231.5,-56 231.5,-62 225.5,-68 219.5,-68"/>
<text text-anchor="middle" x="181.5" y="-52.8" font-family="Helvetica,sans-Serif" font-size="14.00">gini = 0.0</text>
<text text-anchor="middle" x="181.5" y="-37.8" font-family="Helvetica,sans-Serif" font-size="14.00">samples = 1</text>
<text text-anchor="middle" x="181.5" y="-22.8" font-family="Helvetica,sans-Serif" font-size="14.00">value = [1, 0]</text>
<text text-anchor="middle" x="181.5" y="-7.8" font-family="Helvetica,sans-Serif" font-size="14.00">class = 正常</text>
</g>
<!-- 2&#45;&gt;4 -->
<g id="edge4" class="edge">
<title>2&#45;&gt;4</title>
<path fill="none" stroke="black" d="M181.5,-103.73C181.5,-95.52 181.5,-86.86 181.5,-78.56"/>
<polygon fill="black" stroke="black" points="185,-78.3 181.5,-68.3 178,-78.3 185,-78.3"/>
</g>
<!-- 6 -->
<g id="node7" class="node">
<title>6</title>
<path fill="#399de5" stroke="black" d="M337.5,-68C337.5,-68 261.5,-68 261.5,-68 255.5,-68 249.5,-62 249.5,-56 249.5,-56 249.5,-12 249.5,-12 249.5,-6 255.5,0 261.5,0 261.5,0 337.5,0 337.5,0 343.5,0 349.5,-6 349.5,-12 349.5,-12 349.5,-56 349.5,-56 349.5,-62 343.5,-68 337.5,-68"/>
<text text-anchor="middle" x="299.5" y="-52.8" font-family="Helvetica,sans-Serif" font-size="14.00">gini = 0.0</text>
<text text-anchor="middle" x="299.5" y="-37.8" font-family="Helvetica,sans-Serif" font-size="14.00">samples = 7</text>
<text text-anchor="middle" x="299.5" y="-22.8" font-family="Helvetica,sans-Serif" font-size="14.00">value = [0, 7]</text>
<text text-anchor="middle" x="299.5" y="-7.8" font-family="Helvetica,sans-Serif" font-size="14.00">class = 异常</text>
</g>
<!-- 5&#45;&gt;6 -->
<g id="edge6" class="edge">
<title>5&#45;&gt;6</title>
<path fill="none" stroke="black" d="M334.65,-103.73C330.26,-95.15 325.63,-86.09 321.21,-77.46"/>
<polygon fill="black" stroke="black" points="324.2,-75.61 316.53,-68.3 317.97,-78.8 324.2,-75.61"/>
</g>
<!-- 7 -->
<g id="node8" class="node">
<title>7</title>
<path fill="#ea9a61" stroke="black" d="M461,-68C461,-68 380,-68 380,-68 374,-68 368,-62 368,-56 368,-56 368,-12 368,-12 368,-6 374,0 380,0 380,0 461,0 461,0 467,0 473,-6 473,-12 473,-12 473,-56 473,-56 473,-62 467,-68 461,-68"/>
<text text-anchor="middle" x="420.5" y="-52.8" font-family="Helvetica,sans-Serif" font-size="14.00">gini = 0.278</text>
<text text-anchor="middle" x="420.5" y="-37.8" font-family="Helvetica,sans-Serif" font-size="14.00">samples = 12</text>
<text text-anchor="middle" x="420.5" y="-22.8" font-family="Helvetica,sans-Serif" font-size="14.00">value = [10, 2]</text>
<text text-anchor="middle" x="420.5" y="-7.8" font-family="Helvetica,sans-Serif" font-size="14.00">class = 正常</text>
</g>
<!-- 5&#45;&gt;7 -->
<g id="edge7" class="edge">
<title>5&#45;&gt;7</title>
<path fill="none" stroke="black" d="M379.7,-103.73C384.9,-94.97 390.4,-85.7 395.62,-76.91"/>
<polygon fill="black" stroke="black" points="398.64,-78.69 400.73,-68.3 392.62,-75.11 398.64,-78.69"/>
</g>
<!-- 9 -->
<g id="node10" class="node">
<title>9</title>
<path fill="#5aade9" stroke="black" d="M636.5,-187C636.5,-187 546.5,-187 546.5,-187 540.5,-187 534.5,-181 534.5,-175 534.5,-175 534.5,-116 534.5,-116 534.5,-110 540.5,-104 546.5,-104 546.5,-104 636.5,-104 636.5,-104 642.5,-104 648.5,-110 648.5,-116 648.5,-116 648.5,-175 648.5,-175 648.5,-181 642.5,-187 636.5,-187"/>
<text text-anchor="middle" x="591.5" y="-171.8" font-family="Helvetica,sans-Serif" font-size="14.00">n&#45;18 &lt;= 38.337</text>
<text text-anchor="middle" x="591.5" y="-156.8" font-family="Helvetica,sans-Serif" font-size="14.00">gini = 0.245</text>
<text text-anchor="middle" x="591.5" y="-141.8" font-family="Helvetica,sans-Serif" font-size="14.00">samples = 7</text>
<text text-anchor="middle" x="591.5" y="-126.8" font-family="Helvetica,sans-Serif" font-size="14.00">value = [1, 6]</text>
<text text-anchor="middle" x="591.5" y="-111.8" font-family="Helvetica,sans-Serif" font-size="14.00">class = 异常</text>
</g>
<!-- 8&#45;&gt;9 -->
<g id="edge9" class="edge">
<title>8&#45;&gt;9</title>
<path fill="none" stroke="black" d="M591.5,-222.91C591.5,-214.65 591.5,-205.86 591.5,-197.3"/>
<polygon fill="black" stroke="black" points="595,-197.02 591.5,-187.02 588,-197.02 595,-197.02"/>
</g>
<!-- 12 -->
<g id="node13" class="node">
<title>12</title>
<path fill="#e68742" stroke="black" d="M826.5,-187C826.5,-187 728.5,-187 728.5,-187 722.5,-187 716.5,-181 716.5,-175 716.5,-175 716.5,-116 716.5,-116 716.5,-110 722.5,-104 728.5,-104 728.5,-104 826.5,-104 826.5,-104 832.5,-104 838.5,-110 838.5,-116 838.5,-116 838.5,-175 838.5,-175 838.5,-181 832.5,-187 826.5,-187"/>
<text text-anchor="middle" x="777.5" y="-171.8" font-family="Helvetica,sans-Serif" font-size="14.00">n&#45;7 &lt;= 37.565</text>
<text text-anchor="middle" x="777.5" y="-156.8" font-family="Helvetica,sans-Serif" font-size="14.00">gini = 0.082</text>
<text text-anchor="middle" x="777.5" y="-141.8" font-family="Helvetica,sans-Serif" font-size="14.00">samples = 303</text>
<text text-anchor="middle" x="777.5" y="-126.8" font-family="Helvetica,sans-Serif" font-size="14.00">value = [290, 13]</text>
<text text-anchor="middle" x="777.5" y="-111.8" font-family="Helvetica,sans-Serif" font-size="14.00">class = 正常</text>
</g>
<!-- 8&#45;&gt;12 -->
<g id="edge12" class="edge">
<title>8&#45;&gt;12</title>
<path fill="none" stroke="black" d="M652.66,-225.03C670.22,-213.98 689.51,-201.85 707.55,-190.5"/>
<polygon fill="black" stroke="black" points="709.7,-193.28 716.3,-185 705.97,-187.36 709.7,-193.28"/>
</g>
<!-- 10 -->
<g id="node11" class="node">
<title>10</title>
<path fill="#e58139" stroke="black" d="M579.5,-68C579.5,-68 503.5,-68 503.5,-68 497.5,-68 491.5,-62 491.5,-56 491.5,-56 491.5,-12 491.5,-12 491.5,-6 497.5,0 503.5,0 503.5,0 579.5,0 579.5,0 585.5,0 591.5,-6 591.5,-12 591.5,-12 591.5,-56 591.5,-56 591.5,-62 585.5,-68 579.5,-68"/>
<text text-anchor="middle" x="541.5" y="-52.8" font-family="Helvetica,sans-Serif" font-size="14.00">gini = 0.0</text>
<text text-anchor="middle" x="541.5" y="-37.8" font-family="Helvetica,sans-Serif" font-size="14.00">samples = 1</text>
<text text-anchor="middle" x="541.5" y="-22.8" font-family="Helvetica,sans-Serif" font-size="14.00">value = [1, 0]</text>
<text text-anchor="middle" x="541.5" y="-7.8" font-family="Helvetica,sans-Serif" font-size="14.00">class = 正常</text>
</g>
<!-- 9&#45;&gt;10 -->
<g id="edge10" class="edge">
<title>9&#45;&gt;10</title>
<path fill="none" stroke="black" d="M572.88,-103.73C568.97,-95.15 564.83,-86.09 560.89,-77.46"/>
<polygon fill="black" stroke="black" points="564.04,-75.94 556.71,-68.3 557.68,-78.85 564.04,-75.94"/>
</g>
<!-- 11 -->
<g id="node12" class="node">
<title>11</title>
<path fill="#399de5" stroke="black" d="M697.5,-68C697.5,-68 621.5,-68 621.5,-68 615.5,-68 609.5,-62 609.5,-56 609.5,-56 609.5,-12 609.5,-12 609.5,-6 615.5,0 621.5,0 621.5,0 697.5,0 697.5,0 703.5,0 709.5,-6 709.5,-12 709.5,-12 709.5,-56 709.5,-56 709.5,-62 703.5,-68 697.5,-68"/>
<text text-anchor="middle" x="659.5" y="-52.8" font-family="Helvetica,sans-Serif" font-size="14.00">gini = 0.0</text>
<text text-anchor="middle" x="659.5" y="-37.8" font-family="Helvetica,sans-Serif" font-size="14.00">samples = 6</text>
<text text-anchor="middle" x="659.5" y="-22.8" font-family="Helvetica,sans-Serif" font-size="14.00">value = [0, 6]</text>
<text text-anchor="middle" x="659.5" y="-7.8" font-family="Helvetica,sans-Serif" font-size="14.00">class = 异常</text>
</g>
<!-- 9&#45;&gt;11 -->
<g id="edge11" class="edge">
<title>9&#45;&gt;11</title>
<path fill="none" stroke="black" d="M616.82,-103.73C622.26,-94.97 628.01,-85.7 633.48,-76.91"/>
<polygon fill="black" stroke="black" points="636.52,-78.64 638.82,-68.3 630.57,-74.95 636.52,-78.64"/>
</g>
<!-- 13 -->
<g id="node14" class="node">
<title>13</title>
<path fill="#399de5" stroke="black" d="M815.5,-68C815.5,-68 739.5,-68 739.5,-68 733.5,-68 727.5,-62 727.5,-56 727.5,-56 727.5,-12 727.5,-12 727.5,-6 733.5,0 739.5,0 739.5,0 815.5,0 815.5,0 821.5,0 827.5,-6 827.5,-12 827.5,-12 827.5,-56 827.5,-56 827.5,-62 821.5,-68 815.5,-68"/>
<text text-anchor="middle" x="777.5" y="-52.8" font-family="Helvetica,sans-Serif" font-size="14.00">gini = 0.0</text>
<text text-anchor="middle" x="777.5" y="-37.8" font-family="Helvetica,sans-Serif" font-size="14.00">samples = 5</text>
<text text-anchor="middle" x="777.5" y="-22.8" font-family="Helvetica,sans-Serif" font-size="14.00">value = [0, 5]</text>
<text text-anchor="middle" x="777.5" y="-7.8" font-family="Helvetica,sans-Serif" font-size="14.00">class = 异常</text>
</g>
<!-- 12&#45;&gt;13 -->
<g id="edge13" class="edge">
<title>12&#45;&gt;13</title>
<path fill="none" stroke="black" d="M777.5,-103.73C777.5,-95.52 777.5,-86.86 777.5,-78.56"/>
<polygon fill="black" stroke="black" points="781,-78.3 777.5,-68.3 774,-78.3 781,-78.3"/>
</g>
<!-- 14 -->
<g id="node15" class="node">
<title>14</title>
<path fill="#e6843e" stroke="black" d="M947,-68C947,-68 858,-68 858,-68 852,-68 846,-62 846,-56 846,-56 846,-12 846,-12 846,-6 852,0 858,0 858,0 947,0 947,0 953,0 959,-6 959,-12 959,-12 959,-56 959,-56 959,-62 953,-68 947,-68"/>
<text text-anchor="middle" x="902.5" y="-52.8" font-family="Helvetica,sans-Serif" font-size="14.00">gini = 0.052</text>
<text text-anchor="middle" x="902.5" y="-37.8" font-family="Helvetica,sans-Serif" font-size="14.00">samples = 298</text>
<text text-anchor="middle" x="902.5" y="-22.8" font-family="Helvetica,sans-Serif" font-size="14.00">value = [290, 8]</text>
<text text-anchor="middle" x="902.5" y="-7.8" font-family="Helvetica,sans-Serif" font-size="14.00">class = 正常</text>
</g>
<!-- 12&#45;&gt;14 -->
<g id="edge14" class="edge">
<title>12&#45;&gt;14</title>
<path fill="none" stroke="black" d="M824.05,-103.73C834.77,-94.33 846.17,-84.35 856.85,-74.99"/>
<polygon fill="black" stroke="black" points="859.27,-77.52 864.49,-68.3 854.66,-72.26 859.27,-77.52"/>
</g>
</g>
</svg>
